<mxfile host="app.diagrams.net" modified="2024-04-20T10:18:28.911Z" agent="Mozilla/5.0 (X11; Linux x86_64; rv:123.0) Gecko/20100101 Firefox/123.0" etag="A-5wy6Ib4-17M5jpHOaI" version="24.2.7" type="device">
  <diagram id="C5RBs43oDa-KdzZeNtuy" name="Page-1">
    <mxGraphModel dx="1549" dy="2001" grid="1" gridSize="10" guides="1" tooltips="1" connect="1" arrows="1" fold="1" page="1" pageScale="1" pageWidth="827" pageHeight="1169" math="0" shadow="0">
      <root>
        <mxCell id="WIyWlLk6GJQsqaUBKTNV-0" />
        <mxCell id="WIyWlLk6GJQsqaUBKTNV-1" parent="WIyWlLk6GJQsqaUBKTNV-0" />
        <mxCell id="zkfFHV4jXpPFQw0GAbJ--0" value="Utente" style="swimlane;fontStyle=2;align=center;verticalAlign=top;childLayout=stackLayout;horizontal=1;startSize=26;horizontalStack=0;resizeParent=1;resizeLast=0;collapsible=1;marginBottom=0;rounded=0;shadow=0;strokeWidth=1;" parent="WIyWlLk6GJQsqaUBKTNV-1" vertex="1">
          <mxGeometry x="-430" y="10" width="250" height="210" as="geometry">
            <mxRectangle x="220" y="120" width="160" height="26" as="alternateBounds" />
          </mxGeometry>
        </mxCell>
        <mxCell id="zkfFHV4jXpPFQw0GAbJ--1" value="+ ID: Integer" style="text;align=left;verticalAlign=top;spacingLeft=4;spacingRight=4;overflow=hidden;rotatable=0;points=[[0,0.5],[1,0.5]];portConstraint=eastwest;" parent="zkfFHV4jXpPFQw0GAbJ--0" vertex="1">
          <mxGeometry y="26" width="250" height="26" as="geometry" />
        </mxCell>
        <mxCell id="cZrbdKgeAOXJU-vo9ImC-11" value="+ zone_interesse: Zona d&#39;interesse [1..*]" style="text;align=left;verticalAlign=top;spacingLeft=4;spacingRight=4;overflow=hidden;rotatable=0;points=[[0,0.5],[1,0.5]];portConstraint=eastwest;" vertex="1" parent="zkfFHV4jXpPFQw0GAbJ--0">
          <mxGeometry y="52" width="250" height="26" as="geometry" />
        </mxCell>
        <mxCell id="cZrbdKgeAOXJU-vo9ImC-12" value="+ percorsi: Percorso [1..*]" style="text;align=left;verticalAlign=top;spacingLeft=4;spacingRight=4;overflow=hidden;rotatable=0;points=[[0,0.5],[1,0.5]];portConstraint=eastwest;" vertex="1" parent="zkfFHV4jXpPFQw0GAbJ--0">
          <mxGeometry y="78" width="250" height="26" as="geometry" />
        </mxCell>
        <mxCell id="zkfFHV4jXpPFQw0GAbJ--4" value="" style="line;html=1;strokeWidth=1;align=left;verticalAlign=middle;spacingTop=-1;spacingLeft=3;spacingRight=3;rotatable=0;labelPosition=right;points=[];portConstraint=eastwest;" parent="zkfFHV4jXpPFQw0GAbJ--0" vertex="1">
          <mxGeometry y="104" width="250" height="8" as="geometry" />
        </mxCell>
        <mxCell id="zNbjggIn-LUsoocqGlM0-56" value="aggiungiZona(zona: Zona d&#39;interesse)" style="text;align=left;verticalAlign=top;spacingLeft=4;spacingRight=4;overflow=hidden;rotatable=0;points=[[0,0.5],[1,0.5]];portConstraint=eastwest;" parent="zkfFHV4jXpPFQw0GAbJ--0" vertex="1">
          <mxGeometry y="112" width="250" height="26" as="geometry" />
        </mxCell>
        <mxCell id="zNbjggIn-LUsoocqGlM0-57" value="aggiungiPercorso(percorso: Percorso)" style="text;align=left;verticalAlign=top;spacingLeft=4;spacingRight=4;overflow=hidden;rotatable=0;points=[[0,0.5],[1,0.5]];portConstraint=eastwest;" parent="zkfFHV4jXpPFQw0GAbJ--0" vertex="1">
          <mxGeometry y="138" width="250" height="26" as="geometry" />
        </mxCell>
        <mxCell id="zNbjggIn-LUsoocqGlM0-58" value="visualizzaEventi()" style="text;align=left;verticalAlign=top;spacingLeft=4;spacingRight=4;overflow=hidden;rotatable=0;points=[[0,0.5],[1,0.5]];portConstraint=eastwest;" parent="zkfFHV4jXpPFQw0GAbJ--0" vertex="1">
          <mxGeometry y="164" width="250" height="26" as="geometry" />
        </mxCell>
        <mxCell id="FFZJWs_gXwAfkZ4UWd3p-1" value="Percorso" style="swimlane;fontStyle=2;align=center;verticalAlign=top;childLayout=stackLayout;horizontal=1;startSize=26;horizontalStack=0;resizeParent=1;resizeLast=0;collapsible=1;marginBottom=0;rounded=0;shadow=0;strokeWidth=1;" parent="WIyWlLk6GJQsqaUBKTNV-1" vertex="1">
          <mxGeometry x="270" y="-250" width="160" height="140" as="geometry">
            <mxRectangle x="220" y="120" width="160" height="26" as="alternateBounds" />
          </mxGeometry>
        </mxCell>
        <mxCell id="FFZJWs_gXwAfkZ4UWd3p-2" value="+ ID: Integer" style="text;align=left;verticalAlign=top;spacingLeft=4;spacingRight=4;overflow=hidden;rotatable=0;points=[[0,0.5],[1,0.5]];portConstraint=eastwest;" parent="FFZJWs_gXwAfkZ4UWd3p-1" vertex="1">
          <mxGeometry y="26" width="160" height="26" as="geometry" />
        </mxCell>
        <mxCell id="zNbjggIn-LUsoocqGlM0-65" value="+ utente: Utente" style="text;align=left;verticalAlign=top;spacingLeft=4;spacingRight=4;overflow=hidden;rotatable=0;points=[[0,0.5],[1,0.5]];portConstraint=eastwest;" parent="FFZJWs_gXwAfkZ4UWd3p-1" vertex="1">
          <mxGeometry y="52" width="160" height="26" as="geometry" />
        </mxCell>
        <mxCell id="zNbjggIn-LUsoocqGlM0-66" value="+ coordinate: String" style="text;align=left;verticalAlign=top;spacingLeft=4;spacingRight=4;overflow=hidden;rotatable=0;points=[[0,0.5],[1,0.5]];portConstraint=eastwest;" parent="FFZJWs_gXwAfkZ4UWd3p-1" vertex="1">
          <mxGeometry y="78" width="160" height="26" as="geometry" />
        </mxCell>
        <mxCell id="FFZJWs_gXwAfkZ4UWd3p-3" value="" style="line;html=1;strokeWidth=1;align=left;verticalAlign=middle;spacingTop=-1;spacingLeft=3;spacingRight=3;rotatable=0;labelPosition=right;points=[];portConstraint=eastwest;" parent="FFZJWs_gXwAfkZ4UWd3p-1" vertex="1">
          <mxGeometry y="104" width="160" height="8" as="geometry" />
        </mxCell>
        <mxCell id="zNbjggIn-LUsoocqGlM0-47" value="calculatePath()" style="text;align=left;verticalAlign=top;spacingLeft=4;spacingRight=4;overflow=hidden;rotatable=0;points=[[0,0.5],[1,0.5]];portConstraint=eastwest;" parent="FFZJWs_gXwAfkZ4UWd3p-1" vertex="1">
          <mxGeometry y="112" width="160" height="26" as="geometry" />
        </mxCell>
        <mxCell id="FFZJWs_gXwAfkZ4UWd3p-11" value="UtenteAutorizzato" style="swimlane;fontStyle=2;align=center;verticalAlign=top;childLayout=stackLayout;horizontal=1;startSize=26;horizontalStack=0;resizeParent=1;resizeLast=0;collapsible=1;marginBottom=0;rounded=0;shadow=0;strokeWidth=1;" parent="WIyWlLk6GJQsqaUBKTNV-1" vertex="1">
          <mxGeometry x="300" y="440" width="290" height="310" as="geometry">
            <mxRectangle x="220" y="120" width="160" height="26" as="alternateBounds" />
          </mxGeometry>
        </mxCell>
        <mxCell id="FFZJWs_gXwAfkZ4UWd3p-12" value="+ ID: Integer" style="text;align=left;verticalAlign=top;spacingLeft=4;spacingRight=4;overflow=hidden;rotatable=0;points=[[0,0.5],[1,0.5]];portConstraint=eastwest;" parent="FFZJWs_gXwAfkZ4UWd3p-11" vertex="1">
          <mxGeometry y="26" width="290" height="26" as="geometry" />
        </mxCell>
        <mxCell id="cZrbdKgeAOXJU-vo9ImC-10" value="+ categorie_di_competenza: Categoria[1..*]" style="text;align=left;verticalAlign=top;spacingLeft=4;spacingRight=4;overflow=hidden;rotatable=0;points=[[0,0.5],[1,0.5]];portConstraint=eastwest;" vertex="1" parent="FFZJWs_gXwAfkZ4UWd3p-11">
          <mxGeometry y="52" width="290" height="26" as="geometry" />
        </mxCell>
        <mxCell id="cZrbdKgeAOXJU-vo9ImC-26" value="+ eventi_creati: Evento[1..*]" style="text;align=left;verticalAlign=top;spacingLeft=4;spacingRight=4;overflow=hidden;rotatable=0;points=[[0,0.5],[1,0.5]];portConstraint=eastwest;" vertex="1" parent="FFZJWs_gXwAfkZ4UWd3p-11">
          <mxGeometry y="78" width="290" height="26" as="geometry" />
        </mxCell>
        <mxCell id="FFZJWs_gXwAfkZ4UWd3p-13" value="" style="line;html=1;strokeWidth=1;align=left;verticalAlign=middle;spacingTop=-1;spacingLeft=3;spacingRight=3;rotatable=0;labelPosition=right;points=[];portConstraint=eastwest;" parent="FFZJWs_gXwAfkZ4UWd3p-11" vertex="1">
          <mxGeometry y="104" width="290" height="8" as="geometry" />
        </mxCell>
        <mxCell id="FFZJWs_gXwAfkZ4UWd3p-22" value="aggiungiEvento(evento: Evento)" style="text;align=left;verticalAlign=top;spacingLeft=4;spacingRight=4;overflow=hidden;rotatable=0;points=[[0,0.5],[1,0.5]];portConstraint=eastwest;" parent="FFZJWs_gXwAfkZ4UWd3p-11" vertex="1">
          <mxGeometry y="112" width="290" height="26" as="geometry" />
        </mxCell>
        <mxCell id="zNbjggIn-LUsoocqGlM0-24" value="modificaEvento(evento: Evento)" style="text;align=left;verticalAlign=top;spacingLeft=4;spacingRight=4;overflow=hidden;rotatable=0;points=[[0,0.5],[1,0.5]];portConstraint=eastwest;" parent="FFZJWs_gXwAfkZ4UWd3p-11" vertex="1">
          <mxGeometry y="138" width="290" height="26" as="geometry" />
        </mxCell>
        <mxCell id="zNbjggIn-LUsoocqGlM0-25" value="eliminaEvento(evento: Evento)" style="text;align=left;verticalAlign=top;spacingLeft=4;spacingRight=4;overflow=hidden;rotatable=0;points=[[0,0.5],[1,0.5]];portConstraint=eastwest;" parent="FFZJWs_gXwAfkZ4UWd3p-11" vertex="1">
          <mxGeometry y="164" width="290" height="26" as="geometry" />
        </mxCell>
        <mxCell id="zNbjggIn-LUsoocqGlM0-26" value="aggiongiSottocategoria(categoria: Categoria)" style="text;align=left;verticalAlign=top;spacingLeft=4;spacingRight=4;overflow=hidden;rotatable=0;points=[[0,0.5],[1,0.5]];portConstraint=eastwest;" parent="FFZJWs_gXwAfkZ4UWd3p-11" vertex="1">
          <mxGeometry y="190" width="290" height="26" as="geometry" />
        </mxCell>
        <mxCell id="zNbjggIn-LUsoocqGlM0-48" value="modificaSottocategoria(categoria: Categoria)" style="text;align=left;verticalAlign=top;spacingLeft=4;spacingRight=4;overflow=hidden;rotatable=0;points=[[0,0.5],[1,0.5]];portConstraint=eastwest;" parent="FFZJWs_gXwAfkZ4UWd3p-11" vertex="1">
          <mxGeometry y="216" width="290" height="26" as="geometry" />
        </mxCell>
        <mxCell id="zNbjggIn-LUsoocqGlM0-49" value="eliminaSottocategoria(categoria: Categoria)" style="text;align=left;verticalAlign=top;spacingLeft=4;spacingRight=4;overflow=hidden;rotatable=0;points=[[0,0.5],[1,0.5]];portConstraint=eastwest;" parent="FFZJWs_gXwAfkZ4UWd3p-11" vertex="1">
          <mxGeometry y="242" width="290" height="26" as="geometry" />
        </mxCell>
        <mxCell id="FFZJWs_gXwAfkZ4UWd3p-17" value="" style="rounded=0;orthogonalLoop=1;jettySize=auto;html=1;exitX=1;exitY=0.5;exitDx=0;exitDy=0;entryX=0;entryY=0.5;entryDx=0;entryDy=0;endArrow=none;endFill=0;" parent="WIyWlLk6GJQsqaUBKTNV-1" source="zkfFHV4jXpPFQw0GAbJ--1" edge="1" target="zNbjggIn-LUsoocqGlM0-65">
          <mxGeometry relative="1" as="geometry">
            <mxPoint x="140" y="-66.99999999999977" as="targetPoint" />
          </mxGeometry>
        </mxCell>
        <mxCell id="FFZJWs_gXwAfkZ4UWd3p-41" value="1, + appartenente a" style="edgeLabel;html=1;align=center;verticalAlign=middle;resizable=0;points=[];" parent="FFZJWs_gXwAfkZ4UWd3p-17" vertex="1" connectable="0">
          <mxGeometry x="-0.681" y="-1" relative="1" as="geometry">
            <mxPoint as="offset" />
          </mxGeometry>
        </mxCell>
        <mxCell id="FFZJWs_gXwAfkZ4UWd3p-42" value="Molti, + ha" style="edgeLabel;html=1;align=center;verticalAlign=middle;resizable=0;points=[];" parent="FFZJWs_gXwAfkZ4UWd3p-17" vertex="1" connectable="0">
          <mxGeometry x="0.6704" y="-3" relative="1" as="geometry">
            <mxPoint as="offset" />
          </mxGeometry>
        </mxCell>
        <mxCell id="FFZJWs_gXwAfkZ4UWd3p-23" value="Evento" style="swimlane;fontStyle=2;align=center;verticalAlign=top;childLayout=stackLayout;horizontal=1;startSize=26;horizontalStack=0;resizeParent=1;resizeLast=0;collapsible=1;marginBottom=0;rounded=0;shadow=0;strokeWidth=1;" parent="WIyWlLk6GJQsqaUBKTNV-1" vertex="1">
          <mxGeometry x="334" y="40" width="160" height="240" as="geometry">
            <mxRectangle x="220" y="120" width="160" height="26" as="alternateBounds" />
          </mxGeometry>
        </mxCell>
        <mxCell id="FFZJWs_gXwAfkZ4UWd3p-24" value="+ ID: Integer" style="text;align=left;verticalAlign=top;spacingLeft=4;spacingRight=4;overflow=hidden;rotatable=0;points=[[0,0.5],[1,0.5]];portConstraint=eastwest;" parent="FFZJWs_gXwAfkZ4UWd3p-23" vertex="1">
          <mxGeometry y="26" width="160" height="26" as="geometry" />
        </mxCell>
        <mxCell id="zNbjggIn-LUsoocqGlM0-15" value="&amp;nbsp;+ info: String" style="text;html=1;align=left;verticalAlign=middle;whiteSpace=wrap;rounded=0;" parent="FFZJWs_gXwAfkZ4UWd3p-23" vertex="1">
          <mxGeometry y="52" width="160" height="30" as="geometry" />
        </mxCell>
        <mxCell id="zNbjggIn-LUsoocqGlM0-16" value="&amp;nbsp;+ data_inizio: Date" style="text;html=1;align=left;verticalAlign=middle;whiteSpace=wrap;rounded=0;" parent="FFZJWs_gXwAfkZ4UWd3p-23" vertex="1">
          <mxGeometry y="82" width="160" height="30" as="geometry" />
        </mxCell>
        <mxCell id="zNbjggIn-LUsoocqGlM0-17" value="&amp;nbsp;+ data_fine: Date" style="text;html=1;align=left;verticalAlign=middle;whiteSpace=wrap;rounded=0;" parent="FFZJWs_gXwAfkZ4UWd3p-23" vertex="1">
          <mxGeometry y="112" width="160" height="30" as="geometry" />
        </mxCell>
        <mxCell id="xwgDeRf7Foe9UnqN_Oi5-0" value="&amp;nbsp;+ categoria: Categoria" style="text;html=1;align=left;verticalAlign=middle;whiteSpace=wrap;rounded=0;" parent="FFZJWs_gXwAfkZ4UWd3p-23" vertex="1">
          <mxGeometry y="142" width="160" height="30" as="geometry" />
        </mxCell>
        <mxCell id="cZrbdKgeAOXJU-vo9ImC-1" value="+ creator: Utente Autorizzato" style="text;html=1;align=left;verticalAlign=middle;whiteSpace=wrap;rounded=0;" vertex="1" parent="FFZJWs_gXwAfkZ4UWd3p-23">
          <mxGeometry y="172" width="160" height="30" as="geometry" />
        </mxCell>
        <mxCell id="FFZJWs_gXwAfkZ4UWd3p-25" value="" style="line;html=1;strokeWidth=1;align=left;verticalAlign=middle;spacingTop=-1;spacingLeft=3;spacingRight=3;rotatable=0;labelPosition=right;points=[];portConstraint=eastwest;" parent="FFZJWs_gXwAfkZ4UWd3p-23" vertex="1">
          <mxGeometry y="202" width="160" height="8" as="geometry" />
        </mxCell>
        <mxCell id="zNbjggIn-LUsoocqGlM0-8" value="" style="rounded=0;orthogonalLoop=1;jettySize=auto;html=1;exitX=0.5;exitY=0;exitDx=0;exitDy=0;entryX=0.5;entryY=1;entryDx=0;entryDy=0;endArrow=none;endFill=0;" parent="WIyWlLk6GJQsqaUBKTNV-1" source="FFZJWs_gXwAfkZ4UWd3p-11" target="FFZJWs_gXwAfkZ4UWd3p-23" edge="1">
          <mxGeometry relative="1" as="geometry">
            <mxPoint x="290" y="349" as="sourcePoint" />
            <mxPoint x="727.0000000000005" y="552" as="targetPoint" />
          </mxGeometry>
        </mxCell>
        <mxCell id="zNbjggIn-LUsoocqGlM0-9" value="1, + creatore" style="edgeLabel;html=1;align=center;verticalAlign=middle;resizable=0;points=[];" parent="zNbjggIn-LUsoocqGlM0-8" vertex="1" connectable="0">
          <mxGeometry x="-0.681" y="-1" relative="1" as="geometry">
            <mxPoint as="offset" />
          </mxGeometry>
        </mxCell>
        <mxCell id="zNbjggIn-LUsoocqGlM0-10" value="Molti, + eventi creati" style="edgeLabel;html=1;align=center;verticalAlign=middle;resizable=0;points=[];" parent="zNbjggIn-LUsoocqGlM0-8" vertex="1" connectable="0">
          <mxGeometry x="0.6704" y="-3" relative="1" as="geometry">
            <mxPoint as="offset" />
          </mxGeometry>
        </mxCell>
        <mxCell id="cZrbdKgeAOXJU-vo9ImC-45" style="edgeStyle=none;rounded=0;orthogonalLoop=1;jettySize=auto;html=1;exitX=0.5;exitY=0;exitDx=0;exitDy=0;entryX=0.5;entryY=1;entryDx=0;entryDy=0;endArrow=block;endFill=0;" edge="1" parent="WIyWlLk6GJQsqaUBKTNV-1" source="zNbjggIn-LUsoocqGlM0-18" target="cZrbdKgeAOXJU-vo9ImC-30">
          <mxGeometry relative="1" as="geometry" />
        </mxCell>
        <mxCell id="zNbjggIn-LUsoocqGlM0-18" value="UtenteAmministratore" style="swimlane;fontStyle=2;align=center;verticalAlign=top;childLayout=stackLayout;horizontal=1;startSize=26;horizontalStack=0;resizeParent=1;resizeLast=0;collapsible=1;marginBottom=0;rounded=0;shadow=0;strokeWidth=1;" parent="WIyWlLk6GJQsqaUBKTNV-1" vertex="1">
          <mxGeometry x="-50" y="780" width="160" height="165" as="geometry">
            <mxRectangle x="220" y="120" width="160" height="26" as="alternateBounds" />
          </mxGeometry>
        </mxCell>
        <mxCell id="zNbjggIn-LUsoocqGlM0-19" value="+ ID: Integer" style="text;align=left;verticalAlign=top;spacingLeft=4;spacingRight=4;overflow=hidden;rotatable=0;points=[[0,0.5],[1,0.5]];portConstraint=eastwest;" parent="zNbjggIn-LUsoocqGlM0-18" vertex="1">
          <mxGeometry y="26" width="160" height="26" as="geometry" />
        </mxCell>
        <mxCell id="zNbjggIn-LUsoocqGlM0-20" value="" style="line;html=1;strokeWidth=1;align=left;verticalAlign=middle;spacingTop=-1;spacingLeft=3;spacingRight=3;rotatable=0;labelPosition=right;points=[];portConstraint=eastwest;" parent="zNbjggIn-LUsoocqGlM0-18" vertex="1">
          <mxGeometry y="52" width="160" height="8" as="geometry" />
        </mxCell>
        <mxCell id="zNbjggIn-LUsoocqGlM0-36" value="newPolicy()" style="text;align=left;verticalAlign=top;spacingLeft=4;spacingRight=4;overflow=hidden;rotatable=0;points=[[0,0.5],[1,0.5]];portConstraint=eastwest;" parent="zNbjggIn-LUsoocqGlM0-18" vertex="1">
          <mxGeometry y="60" width="160" height="26" as="geometry" />
        </mxCell>
        <mxCell id="zNbjggIn-LUsoocqGlM0-37" value="deletePolicy()" style="text;align=left;verticalAlign=top;spacingLeft=4;spacingRight=4;overflow=hidden;rotatable=0;points=[[0,0.5],[1,0.5]];portConstraint=eastwest;" parent="zNbjggIn-LUsoocqGlM0-18" vertex="1">
          <mxGeometry y="86" width="160" height="26" as="geometry" />
        </mxCell>
        <mxCell id="zNbjggIn-LUsoocqGlM0-28" value="ZonaDiInteresse" style="swimlane;fontStyle=2;align=center;verticalAlign=top;childLayout=stackLayout;horizontal=1;startSize=26;horizontalStack=0;resizeParent=1;resizeLast=0;collapsible=1;marginBottom=0;rounded=0;shadow=0;strokeWidth=1;" parent="WIyWlLk6GJQsqaUBKTNV-1" vertex="1">
          <mxGeometry x="-220" y="-330" width="160" height="140" as="geometry">
            <mxRectangle x="220" y="120" width="160" height="26" as="alternateBounds" />
          </mxGeometry>
        </mxCell>
        <mxCell id="zNbjggIn-LUsoocqGlM0-29" value="+ ID: Integer" style="text;align=left;verticalAlign=top;spacingLeft=4;spacingRight=4;overflow=hidden;rotatable=0;points=[[0,0.5],[1,0.5]];portConstraint=eastwest;" parent="zNbjggIn-LUsoocqGlM0-28" vertex="1">
          <mxGeometry y="26" width="160" height="26" as="geometry" />
        </mxCell>
        <mxCell id="zNbjggIn-LUsoocqGlM0-32" value="+ utente: Utente" style="text;align=left;verticalAlign=top;spacingLeft=4;spacingRight=4;overflow=hidden;rotatable=0;points=[[0,0.5],[1,0.5]];portConstraint=eastwest;" parent="zNbjggIn-LUsoocqGlM0-28" vertex="1">
          <mxGeometry y="52" width="160" height="26" as="geometry" />
        </mxCell>
        <mxCell id="zNbjggIn-LUsoocqGlM0-63" value="+ coordinate: String" style="text;align=left;verticalAlign=top;spacingLeft=4;spacingRight=4;overflow=hidden;rotatable=0;points=[[0,0.5],[1,0.5]];portConstraint=eastwest;" parent="zNbjggIn-LUsoocqGlM0-28" vertex="1">
          <mxGeometry y="78" width="160" height="26" as="geometry" />
        </mxCell>
        <mxCell id="zNbjggIn-LUsoocqGlM0-30" value="" style="line;html=1;strokeWidth=1;align=left;verticalAlign=middle;spacingTop=-1;spacingLeft=3;spacingRight=3;rotatable=0;labelPosition=right;points=[];portConstraint=eastwest;" parent="zNbjggIn-LUsoocqGlM0-28" vertex="1">
          <mxGeometry y="104" width="160" height="8" as="geometry" />
        </mxCell>
        <mxCell id="zNbjggIn-LUsoocqGlM0-33" value="" style="rounded=0;orthogonalLoop=1;jettySize=auto;html=1;exitX=0.75;exitY=0;exitDx=0;exitDy=0;entryX=0.5;entryY=1;entryDx=0;entryDy=0;endArrow=none;endFill=0;" parent="WIyWlLk6GJQsqaUBKTNV-1" source="zkfFHV4jXpPFQw0GAbJ--0" target="zNbjggIn-LUsoocqGlM0-28" edge="1">
          <mxGeometry relative="1" as="geometry">
            <mxPoint x="-220" y="-90" as="sourcePoint" />
            <mxPoint x="150" y="-86" as="targetPoint" />
          </mxGeometry>
        </mxCell>
        <mxCell id="zNbjggIn-LUsoocqGlM0-34" value="1, + utente" style="edgeLabel;html=1;align=center;verticalAlign=middle;resizable=0;points=[];" parent="zNbjggIn-LUsoocqGlM0-33" vertex="1" connectable="0">
          <mxGeometry x="-0.681" y="-1" relative="1" as="geometry">
            <mxPoint as="offset" />
          </mxGeometry>
        </mxCell>
        <mxCell id="zNbjggIn-LUsoocqGlM0-35" value="Molti, + ha" style="edgeLabel;html=1;align=center;verticalAlign=middle;resizable=0;points=[];" parent="zNbjggIn-LUsoocqGlM0-33" vertex="1" connectable="0">
          <mxGeometry x="0.6704" y="-3" relative="1" as="geometry">
            <mxPoint as="offset" />
          </mxGeometry>
        </mxCell>
        <mxCell id="zNbjggIn-LUsoocqGlM0-42" value="" style="rounded=0;orthogonalLoop=1;jettySize=auto;html=1;exitX=0;exitY=0.5;exitDx=0;exitDy=0;endArrow=none;endFill=0;entryX=0.5;entryY=1;entryDx=0;entryDy=0;" parent="WIyWlLk6GJQsqaUBKTNV-1" edge="1" target="zNbjggIn-LUsoocqGlM0-38">
          <mxGeometry relative="1" as="geometry">
            <mxPoint x="-50" y="853" as="sourcePoint" />
            <mxPoint x="100" y="732.02" as="targetPoint" />
          </mxGeometry>
        </mxCell>
        <mxCell id="zNbjggIn-LUsoocqGlM0-43" value="1" style="edgeLabel;html=1;align=center;verticalAlign=middle;resizable=0;points=[];" parent="zNbjggIn-LUsoocqGlM0-42" vertex="1" connectable="0">
          <mxGeometry x="-0.681" y="-1" relative="1" as="geometry">
            <mxPoint as="offset" />
          </mxGeometry>
        </mxCell>
        <mxCell id="zNbjggIn-LUsoocqGlM0-44" value="Molti" style="edgeLabel;html=1;align=center;verticalAlign=middle;resizable=0;points=[];" parent="zNbjggIn-LUsoocqGlM0-42" vertex="1" connectable="0">
          <mxGeometry x="0.6704" y="-3" relative="1" as="geometry">
            <mxPoint as="offset" />
          </mxGeometry>
        </mxCell>
        <mxCell id="zNbjggIn-LUsoocqGlM0-67" value="Competenza" style="swimlane;fontStyle=2;align=center;verticalAlign=top;childLayout=stackLayout;horizontal=1;startSize=26;horizontalStack=0;resizeParent=1;resizeLast=0;collapsible=1;marginBottom=0;rounded=0;shadow=0;strokeWidth=1;" parent="WIyWlLk6GJQsqaUBKTNV-1" vertex="1">
          <mxGeometry x="240" y="900" width="160" height="130" as="geometry">
            <mxRectangle x="60" y="310" width="160" height="26" as="alternateBounds" />
          </mxGeometry>
        </mxCell>
        <mxCell id="zNbjggIn-LUsoocqGlM0-68" value="+ ID: Integer" style="text;align=left;verticalAlign=top;spacingLeft=4;spacingRight=4;overflow=hidden;rotatable=0;points=[[0,0.5],[1,0.5]];portConstraint=eastwest;" parent="zNbjggIn-LUsoocqGlM0-67" vertex="1">
          <mxGeometry y="26" width="160" height="26" as="geometry" />
        </mxCell>
        <mxCell id="zNbjggIn-LUsoocqGlM0-74" value="+ IdUtente: Integer" style="text;align=left;verticalAlign=top;spacingLeft=4;spacingRight=4;overflow=hidden;rotatable=0;points=[[0,0.5],[1,0.5]];portConstraint=eastwest;" parent="zNbjggIn-LUsoocqGlM0-67" vertex="1">
          <mxGeometry y="52" width="160" height="26" as="geometry" />
        </mxCell>
        <mxCell id="zNbjggIn-LUsoocqGlM0-69" value="**Da definire**" style="text;align=left;verticalAlign=top;spacingLeft=4;spacingRight=4;overflow=hidden;rotatable=0;points=[[0,0.5],[1,0.5]];portConstraint=eastwest;" parent="zNbjggIn-LUsoocqGlM0-67" vertex="1">
          <mxGeometry y="78" width="160" height="26" as="geometry" />
        </mxCell>
        <mxCell id="zNbjggIn-LUsoocqGlM0-70" value="" style="line;html=1;strokeWidth=1;align=left;verticalAlign=middle;spacingTop=-1;spacingLeft=3;spacingRight=3;rotatable=0;labelPosition=right;points=[];portConstraint=eastwest;" parent="zNbjggIn-LUsoocqGlM0-67" vertex="1">
          <mxGeometry y="104" width="160" height="8" as="geometry" />
        </mxCell>
        <mxCell id="zNbjggIn-LUsoocqGlM0-71" value="" style="rounded=0;orthogonalLoop=1;jettySize=auto;html=1;entryX=0;entryY=0.5;entryDx=0;entryDy=0;endArrow=none;endFill=0;exitX=1;exitY=0.5;exitDx=0;exitDy=0;" parent="WIyWlLk6GJQsqaUBKTNV-1" target="zNbjggIn-LUsoocqGlM0-74" edge="1">
          <mxGeometry relative="1" as="geometry">
            <mxPoint x="110" y="853" as="sourcePoint" />
            <mxPoint x="169" y="839.02" as="targetPoint" />
          </mxGeometry>
        </mxCell>
        <mxCell id="zNbjggIn-LUsoocqGlM0-72" value="1" style="edgeLabel;html=1;align=center;verticalAlign=middle;resizable=0;points=[];" parent="zNbjggIn-LUsoocqGlM0-71" vertex="1" connectable="0">
          <mxGeometry x="-0.681" y="-1" relative="1" as="geometry">
            <mxPoint as="offset" />
          </mxGeometry>
        </mxCell>
        <mxCell id="zNbjggIn-LUsoocqGlM0-73" value="Molti" style="edgeLabel;html=1;align=center;verticalAlign=middle;resizable=0;points=[];" parent="zNbjggIn-LUsoocqGlM0-71" vertex="1" connectable="0">
          <mxGeometry x="0.6704" y="-3" relative="1" as="geometry">
            <mxPoint as="offset" />
          </mxGeometry>
        </mxCell>
        <mxCell id="lhMbLvEp6yjlirxGs6l1-14" value="" style="rounded=0;orthogonalLoop=1;jettySize=auto;html=1;entryX=0.5;entryY=0;entryDx=0;entryDy=0;endArrow=none;endFill=0;exitX=0.5;exitY=1;exitDx=0;exitDy=0;" parent="WIyWlLk6GJQsqaUBKTNV-1" source="FFZJWs_gXwAfkZ4UWd3p-11" target="zNbjggIn-LUsoocqGlM0-67" edge="1">
          <mxGeometry relative="1" as="geometry">
            <mxPoint y="768.02" as="sourcePoint" />
            <mxPoint x="169" y="972.02" as="targetPoint" />
          </mxGeometry>
        </mxCell>
        <mxCell id="lhMbLvEp6yjlirxGs6l1-15" value="1" style="edgeLabel;html=1;align=center;verticalAlign=middle;resizable=0;points=[];" parent="lhMbLvEp6yjlirxGs6l1-14" vertex="1" connectable="0">
          <mxGeometry x="-0.681" y="-1" relative="1" as="geometry">
            <mxPoint as="offset" />
          </mxGeometry>
        </mxCell>
        <mxCell id="lhMbLvEp6yjlirxGs6l1-16" value="Molti" style="edgeLabel;html=1;align=center;verticalAlign=middle;resizable=0;points=[];" parent="lhMbLvEp6yjlirxGs6l1-14" vertex="1" connectable="0">
          <mxGeometry x="0.6704" y="-3" relative="1" as="geometry">
            <mxPoint as="offset" />
          </mxGeometry>
        </mxCell>
        <mxCell id="xwgDeRf7Foe9UnqN_Oi5-1" style="rounded=0;orthogonalLoop=1;jettySize=auto;html=1;exitX=1;exitY=0.5;exitDx=0;exitDy=0;entryX=0;entryY=0.5;entryDx=0;entryDy=0;endArrow=none;endFill=0;" parent="WIyWlLk6GJQsqaUBKTNV-1" source="zNbjggIn-LUsoocqGlM0-24" edge="1">
          <mxGeometry relative="1" as="geometry">
            <mxPoint x="840" y="680.9999999999995" as="targetPoint" />
            <mxPoint x="600" y="250" as="sourcePoint" />
          </mxGeometry>
        </mxCell>
        <mxCell id="xwgDeRf7Foe9UnqN_Oi5-2" value="1" style="edgeLabel;html=1;align=center;verticalAlign=middle;resizable=0;points=[];" parent="xwgDeRf7Foe9UnqN_Oi5-1" vertex="1" connectable="0">
          <mxGeometry x="-0.54" y="1" relative="1" as="geometry">
            <mxPoint y="-1" as="offset" />
          </mxGeometry>
        </mxCell>
        <mxCell id="xwgDeRf7Foe9UnqN_Oi5-3" value="&lt;div&gt;Molti, + categorie a cui&lt;br&gt;&lt;/div&gt;&lt;div&gt;&amp;nbsp;&amp;nbsp;&amp;nbsp;&amp;nbsp;&amp;nbsp;&amp;nbsp;&amp;nbsp; ha accesso&lt;/div&gt;" style="edgeLabel;html=1;align=center;verticalAlign=middle;resizable=0;points=[];" parent="xwgDeRf7Foe9UnqN_Oi5-1" vertex="1" connectable="0">
          <mxGeometry x="0.5" y="1" relative="1" as="geometry">
            <mxPoint x="1" as="offset" />
          </mxGeometry>
        </mxCell>
        <mxCell id="xwgDeRf7Foe9UnqN_Oi5-5" value="Categoria" style="swimlane;fontStyle=2;align=center;verticalAlign=top;childLayout=stackLayout;horizontal=1;startSize=26;horizontalStack=0;resizeParent=1;resizeLast=0;collapsible=1;marginBottom=0;rounded=0;shadow=0;strokeWidth=1;" parent="WIyWlLk6GJQsqaUBKTNV-1" vertex="1">
          <mxGeometry x="840" y="530" width="340" height="180" as="geometry">
            <mxRectangle x="220" y="120" width="160" height="26" as="alternateBounds" />
          </mxGeometry>
        </mxCell>
        <mxCell id="xwgDeRf7Foe9UnqN_Oi5-6" value="+ ID: Integer" style="text;align=left;verticalAlign=top;spacingLeft=4;spacingRight=4;overflow=hidden;rotatable=0;points=[[0,0.5],[1,0.5]];portConstraint=eastwest;" parent="xwgDeRf7Foe9UnqN_Oi5-5" vertex="1">
          <mxGeometry y="26" width="340" height="26" as="geometry" />
        </mxCell>
        <mxCell id="xwgDeRf7Foe9UnqN_Oi5-7" value="+ Nome: String" style="text;align=left;verticalAlign=top;spacingLeft=4;spacingRight=4;overflow=hidden;rotatable=0;points=[[0,0.5],[1,0.5]];portConstraint=eastwest;" parent="xwgDeRf7Foe9UnqN_Oi5-5" vertex="1">
          <mxGeometry y="52" width="340" height="26" as="geometry" />
        </mxCell>
        <mxCell id="cZrbdKgeAOXJU-vo9ImC-27" value="+ supercategoria: Option&lt;Categoria&gt;" style="text;align=left;verticalAlign=top;spacingLeft=4;spacingRight=4;overflow=hidden;rotatable=0;points=[[0,0.5],[1,0.5]];portConstraint=eastwest;" vertex="1" parent="xwgDeRf7Foe9UnqN_Oi5-5">
          <mxGeometry y="78" width="340" height="26" as="geometry" />
        </mxCell>
        <mxCell id="cZrbdKgeAOXJU-vo9ImC-28" value="+ sottocategorie: Categoria[1..*]" style="text;align=left;verticalAlign=top;spacingLeft=4;spacingRight=4;overflow=hidden;rotatable=0;points=[[0,0.5],[1,0.5]];portConstraint=eastwest;" vertex="1" parent="xwgDeRf7Foe9UnqN_Oi5-5">
          <mxGeometry y="104" width="340" height="26" as="geometry" />
        </mxCell>
        <mxCell id="cZrbdKgeAOXJU-vo9ImC-47" value="+ owner: Either&lt;UtenteAmministratore, UtenteAutorizzato&gt;" style="text;align=left;verticalAlign=top;spacingLeft=4;spacingRight=4;overflow=hidden;rotatable=0;points=[[0,0.5],[1,0.5]];portConstraint=eastwest;" vertex="1" parent="xwgDeRf7Foe9UnqN_Oi5-5">
          <mxGeometry y="130" width="340" height="26" as="geometry" />
        </mxCell>
        <mxCell id="xwgDeRf7Foe9UnqN_Oi5-9" value="" style="line;html=1;strokeWidth=1;align=left;verticalAlign=middle;spacingTop=-1;spacingLeft=3;spacingRight=3;rotatable=0;labelPosition=right;points=[];portConstraint=eastwest;" parent="xwgDeRf7Foe9UnqN_Oi5-5" vertex="1">
          <mxGeometry y="156" width="340" height="8" as="geometry" />
        </mxCell>
        <mxCell id="xwgDeRf7Foe9UnqN_Oi5-10" style="edgeStyle=orthogonalEdgeStyle;rounded=0;orthogonalLoop=1;jettySize=auto;html=1;exitX=1;exitY=0.5;exitDx=0;exitDy=0;endArrow=none;endFill=0;entryX=0.5;entryY=1;entryDx=0;entryDy=0;" parent="xwgDeRf7Foe9UnqN_Oi5-5" target="xwgDeRf7Foe9UnqN_Oi5-5" edge="1" source="cZrbdKgeAOXJU-vo9ImC-27">
          <mxGeometry relative="1" as="geometry">
            <Array as="points">
              <mxPoint x="390" y="91" />
              <mxPoint x="390" y="320" />
              <mxPoint x="170" y="320" />
            </Array>
            <mxPoint x="160" y="73" as="sourcePoint" />
            <mxPoint x="120" y="220" as="targetPoint" />
          </mxGeometry>
        </mxCell>
        <mxCell id="xwgDeRf7Foe9UnqN_Oi5-11" value="Sottocategoria" style="edgeLabel;html=1;align=center;verticalAlign=middle;resizable=0;points=[];" parent="xwgDeRf7Foe9UnqN_Oi5-10" vertex="1" connectable="0">
          <mxGeometry x="-0.7944" y="1" relative="1" as="geometry">
            <mxPoint as="offset" />
          </mxGeometry>
        </mxCell>
        <mxCell id="xwgDeRf7Foe9UnqN_Oi5-12" value="&lt;div&gt;Supercategoria&lt;/div&gt;" style="edgeLabel;html=1;align=center;verticalAlign=middle;resizable=0;points=[];" parent="xwgDeRf7Foe9UnqN_Oi5-10" vertex="1" connectable="0">
          <mxGeometry x="0.8458" y="-4" relative="1" as="geometry">
            <mxPoint x="-4" y="-25" as="offset" />
          </mxGeometry>
        </mxCell>
        <mxCell id="zNbjggIn-LUsoocqGlM0-38" value="Policy" style="swimlane;fontStyle=2;align=center;verticalAlign=top;childLayout=stackLayout;horizontal=1;startSize=26;horizontalStack=0;resizeParent=1;resizeLast=0;collapsible=1;marginBottom=0;rounded=0;shadow=0;strokeWidth=1;" parent="WIyWlLk6GJQsqaUBKTNV-1" vertex="1">
          <mxGeometry x="-280" y="710" width="160" height="130" as="geometry">
            <mxRectangle x="60" y="310" width="160" height="26" as="alternateBounds" />
          </mxGeometry>
        </mxCell>
        <mxCell id="zNbjggIn-LUsoocqGlM0-39" value="+ ID: Integer" style="text;align=left;verticalAlign=top;spacingLeft=4;spacingRight=4;overflow=hidden;rotatable=0;points=[[0,0.5],[1,0.5]];portConstraint=eastwest;" parent="zNbjggIn-LUsoocqGlM0-38" vertex="1">
          <mxGeometry y="26" width="160" height="26" as="geometry" />
        </mxCell>
        <mxCell id="zNbjggIn-LUsoocqGlM0-62" value="**Da definire**" style="text;align=left;verticalAlign=top;spacingLeft=4;spacingRight=4;overflow=hidden;rotatable=0;points=[[0,0.5],[1,0.5]];portConstraint=eastwest;" parent="zNbjggIn-LUsoocqGlM0-38" vertex="1">
          <mxGeometry y="52" width="160" height="26" as="geometry" />
        </mxCell>
        <mxCell id="zNbjggIn-LUsoocqGlM0-40" value="" style="line;html=1;strokeWidth=1;align=left;verticalAlign=middle;spacingTop=-1;spacingLeft=3;spacingRight=3;rotatable=0;labelPosition=right;points=[];portConstraint=eastwest;" parent="zNbjggIn-LUsoocqGlM0-38" vertex="1">
          <mxGeometry y="78" width="160" height="8" as="geometry" />
        </mxCell>
        <mxCell id="cZrbdKgeAOXJU-vo9ImC-30" value="UtenteAutenticabile" style="swimlane;fontStyle=2;align=center;verticalAlign=top;childLayout=stackLayout;horizontal=1;startSize=26;horizontalStack=0;resizeParent=1;resizeLast=0;collapsible=1;marginBottom=0;rounded=0;shadow=0;strokeWidth=1;" vertex="1" parent="WIyWlLk6GJQsqaUBKTNV-1">
          <mxGeometry x="-90" y="280" width="250" height="150" as="geometry">
            <mxRectangle x="220" y="120" width="160" height="26" as="alternateBounds" />
          </mxGeometry>
        </mxCell>
        <mxCell id="cZrbdKgeAOXJU-vo9ImC-31" value="- auth_token: Option&lt;String&gt;" style="text;align=left;verticalAlign=top;spacingLeft=4;spacingRight=4;overflow=hidden;rotatable=0;points=[[0,0.5],[1,0.5]];portConstraint=eastwest;" vertex="1" parent="cZrbdKgeAOXJU-vo9ImC-30">
          <mxGeometry y="26" width="250" height="26" as="geometry" />
        </mxCell>
        <mxCell id="cZrbdKgeAOXJU-vo9ImC-42" value="+ is_authenticated: Bool" style="text;align=left;verticalAlign=top;spacingLeft=4;spacingRight=4;overflow=hidden;rotatable=0;points=[[0,0.5],[1,0.5]];portConstraint=eastwest;" vertex="1" parent="cZrbdKgeAOXJU-vo9ImC-30">
          <mxGeometry y="52" width="250" height="26" as="geometry" />
        </mxCell>
        <mxCell id="cZrbdKgeAOXJU-vo9ImC-36" value="" style="line;html=1;strokeWidth=1;align=left;verticalAlign=middle;spacingTop=-1;spacingLeft=3;spacingRight=3;rotatable=0;labelPosition=right;points=[];portConstraint=eastwest;" vertex="1" parent="cZrbdKgeAOXJU-vo9ImC-30">
          <mxGeometry y="78" width="250" height="8" as="geometry" />
        </mxCell>
        <mxCell id="cZrbdKgeAOXJU-vo9ImC-37" value="login(username: String, password: String)" style="text;align=left;verticalAlign=top;spacingLeft=4;spacingRight=4;overflow=hidden;rotatable=0;points=[[0,0.5],[1,0.5]];portConstraint=eastwest;" vertex="1" parent="cZrbdKgeAOXJU-vo9ImC-30">
          <mxGeometry y="86" width="250" height="26" as="geometry" />
        </mxCell>
        <mxCell id="cZrbdKgeAOXJU-vo9ImC-38" value="register(username: String, password: String)" style="text;align=left;verticalAlign=top;spacingLeft=4;spacingRight=4;overflow=hidden;rotatable=0;points=[[0,0.5],[1,0.5]];portConstraint=eastwest;" vertex="1" parent="cZrbdKgeAOXJU-vo9ImC-30">
          <mxGeometry y="112" width="250" height="26" as="geometry" />
        </mxCell>
        <mxCell id="cZrbdKgeAOXJU-vo9ImC-43" style="edgeStyle=none;rounded=0;orthogonalLoop=1;jettySize=auto;html=1;exitX=1;exitY=0.5;exitDx=0;exitDy=0;entryX=0;entryY=0;entryDx=0;entryDy=0;endArrow=block;endFill=0;" edge="1" parent="WIyWlLk6GJQsqaUBKTNV-1" source="zNbjggIn-LUsoocqGlM0-56" target="cZrbdKgeAOXJU-vo9ImC-30">
          <mxGeometry relative="1" as="geometry" />
        </mxCell>
        <mxCell id="cZrbdKgeAOXJU-vo9ImC-44" style="edgeStyle=none;rounded=0;orthogonalLoop=1;jettySize=auto;html=1;exitX=0;exitY=0.5;exitDx=0;exitDy=0;entryX=1;entryY=1;entryDx=0;entryDy=0;endArrow=block;endFill=0;arcSize=20;" edge="1" parent="WIyWlLk6GJQsqaUBKTNV-1" source="zNbjggIn-LUsoocqGlM0-24" target="cZrbdKgeAOXJU-vo9ImC-30">
          <mxGeometry relative="1" as="geometry" />
        </mxCell>
        <mxCell id="cZrbdKgeAOXJU-vo9ImC-46" value="&amp;nbsp;" style="text;whiteSpace=wrap;html=1;" vertex="1" parent="WIyWlLk6GJQsqaUBKTNV-1">
          <mxGeometry x="90" y="420" width="40" height="40" as="geometry" />
        </mxCell>
      </root>
    </mxGraphModel>
  </diagram>
</mxfile>
